<svg width="1818" height="1746" viewBox="0 0 1818 1746" fill="none" xmlns="http://www.w3.org/2000/svg">
<path d="M394 405C394 377.386 416.386 355 444 355H1374C1401.61 355 1424 377.386 1424 405V1340C1424 1367.61 1401.61 1390 1374 1390H444C416.386 1390 394 1367.61 394 1340V405Z" fill="black"/>
<path d="M819.108 950.842L857.669 913.747L777.042 834.5L857.669 756.939L819.108 719.844L699.919 834.5L819.108 950.842ZM997.892 950.842L1117.08 834.5L996.139 718.158L957.578 755.253L1039.96 834.5L959.331 912.061L997.892 950.842ZM645.583 1138C631.561 1138 619.292 1132.94 608.775 1122.82C598.258 1112.71 593 1100.91 593 1087.42V581.583C593 568.094 598.258 556.292 608.775 546.175C619.292 536.058 631.561 531 645.583 531H1171.42C1185.44 531 1197.71 536.058 1208.22 546.175C1218.74 556.292 1224 568.094 1224 581.583V1087.42C1224 1100.91 1218.74 1112.71 1208.22 1122.82C1197.71 1132.94 1185.44 1138 1171.42 1138H645.583ZM645.583 1087.42H1171.42V581.583H645.583V1087.42Z" fill="#BEA2C8"/>
<path d="M696.041 1451.03V1579H670.289V1451.03H696.041ZM759.586 1451.03L718.102 1514.58L692.701 1546.22L687.779 1520.46L704.215 1493.04L728.297 1451.03H759.586ZM729.879 1579L701.93 1520.2L720.826 1503.5L760.201 1579H729.879Z" fill="#BEA2C8"/>
<path d="M820.934 1451.03V1579H795.357V1451.03H820.934ZM852.75 1451.03V1472.39H764.156V1451.03H852.75Z" fill="#BEA2C8"/>
<path d="M890.367 1451.03L908.648 1493.75L926.051 1451.03H954.439L923.59 1514.4L955.055 1579H925.523L907.33 1535.32L889.137 1579H860.221L892.213 1513.87L860.924 1451.03H890.367Z" fill="#BEA2C8"/>
<path d="M1012.01 1533.91H985.816V1512.55H1012.01C1015.64 1512.55 1018.6 1511.73 1020.88 1510.09C1023.23 1508.45 1024.93 1506.2 1025.98 1503.33C1027.04 1500.4 1027.56 1497.12 1027.56 1493.48C1027.56 1489.79 1027.01 1486.36 1025.89 1483.2C1024.84 1479.98 1023.17 1477.37 1020.88 1475.38C1018.66 1473.38 1015.7 1472.39 1012.01 1472.39H994.078V1579H968.414V1451.03H1012.01C1020.62 1451.03 1028.03 1452.85 1034.24 1456.48C1040.46 1460.11 1045.2 1465.12 1048.48 1471.51C1051.82 1477.84 1053.49 1485.1 1053.49 1493.31C1053.49 1501.57 1051.82 1508.75 1048.48 1514.84C1045.2 1520.88 1040.46 1525.56 1034.24 1528.9C1028.03 1532.24 1020.62 1533.91 1012.01 1533.91Z" fill="#BEA2C8"/>
<path d="M1089.7 1451.03L1109.21 1508.69L1128.55 1451.03H1156.59L1122.13 1532.51V1579H1096.21V1532.51L1061.75 1451.03H1089.7Z" fill="#BEA2C8"/>
</svg>
